<svg xmlns="http://www.w3.org/2000/svg" width="2194" height="358" viewBox="0 0 2194 358">
  <defs>
    <style>
      .cls-1 {
        fill: #fd1a55;
      }

      .cls-2 {
        fill: #d5d5d5;
        fill-rule: evenodd;
      }
    </style>
  </defs>
  <circle class="cls-1" cx="2165" cy="328" r="28"/>
  <path id="meeton" class="cls-2" d="M1.376,356.45H34.2V248.619q-1.879-51.942,7.5-75.018t25.9-34.668q16.527-11.593,39.5-11.595,21.33,0,35.634,9.856a87.972,87.972,0,0,1,24.615,26.436q10.313,16.583,10.315,62.5V356.45h33.054V227.517q5.391-49.394,15.942-63.771,26.955-33.855,64.937-36.408,20.158,0,34.461,9.392a50.748,50.748,0,0,1,20.161,24.7q5.858,15.3,5.861,56.118V356.45H385.84v-138.9q0-47.535-9.963-71.539T341.3,108.787a107.1,107.1,0,0,0-51.34-13.218Q254.091,99.743,244.245,106a127.079,127.079,0,0,0-23.677,15.073q-18.759,19.947-24.616,34.784-10.785-23.185-21.333-34.784t-29.772-18.551a111.078,111.078,0,0,0-37.978-6.957q-29.071.7-44.776,10.667a107.644,107.644,0,0,0-38.681,35.016Q5.594,165.372,1.376,217.313V356.45Zm699.6-54.263a102.689,102.689,0,0,1-31.531,17.971A109.405,109.405,0,0,1,631.232,327q-40.56,0-68.219-28.407t-28.6-72.931H765.326q-0.237-51.942-28.132-86.728Q697.81,89.54,632.4,89.54q-64,0-101.977,48.235-30.01,37.8-30.007,86.264,0,51.252,35.4,91.946t98.226,40.7q28.364,0,50.872-8.464a127.058,127.058,0,0,0,40.556-24.7q18.05-16.228,31.414-42.9l-27.663-14.609Q713.983,291.057,700.975,302.187ZM537.929,197.6q10.077-35.012,29.773-52.64,27.192-24.115,64.937-24.117a103.515,103.515,0,0,1,43.838,9.624q20.862,9.625,33.524,25.276T729.224,197.6h-191.3ZM1072.72,302.187a102.566,102.566,0,0,1-31.53,17.971A109.353,109.353,0,0,1,1002.98,327q-40.557,0-68.217-28.407t-28.6-72.931H1137.08q-0.24-51.942-28.14-86.728Q1069.565,89.54,1004.15,89.54q-63.995,0-101.973,48.235-30.011,37.8-30.007,86.264,0,51.252,35.4,91.946t98.221,40.7q28.365,0,50.88-8.464a126.988,126.988,0,0,0,40.55-24.7q18.06-16.228,31.42-42.9l-27.67-14.609Q1085.73,291.057,1072.72,302.187ZM909.679,197.6q10.076-35.012,29.772-52.64,27.192-24.115,64.939-24.117a103.567,103.567,0,0,1,43.84,9.624q20.85,9.625,33.52,25.276t19.22,41.857H909.679ZM1359.26,347.638q-25.8,9.739-45.95,9.044-37.98-2.088-60.01-38.958a97,97,0,0,1-12.9-51.017V2.579h33.29v122.9h61.19v28.059h-60.95v107.6q-1.41,39.888,27.19,61.452,23.445,10.9,47.82-2.087,6.33,17.393,10.32,27.132h0Zm133.33-215.43q-35.4,38.958-35.4,91.83,0,53.106,37.4,92.874,37.38,39.774,96.46,39.77,58.845,0,96.35-39.77t37.51-92.874q0-53.1-35.4-92.062-39.15-42.436-98.46-42.436t-98.46,42.668h0Zm169.03,19.479q29.535,30.148,29.53,72.815a104.358,104.358,0,0,1-13.36,51.6q-13.365,24-36.22,36.871a104.884,104.884,0,0,1-100.68,0,94.035,94.035,0,0,1-36.46-36.871,103.633,103.633,0,0,1-13.48-51.6q0-42.665,29.54-72.815t70.56-30.146Q1632.075,121.541,1661.62,151.687ZM1843.24,356.45h33.29V263.228q0-50.318,4.46-69.336-1.65-29.68,21.8-46.843,23.43-17.158,53.45-17.16,33.99,0,51.34,10.551t23.21,35.828q3.75,14.843,3.75,58.9V356.45h32.82V225.661q0-52.176-10.55-76.641t-35.28-38.958a104.584,104.584,0,0,0-53.8-14.493q-37.275-.7-66.35,11.594-17.58,9.741-34.46,27.6-17.355,20.409-22.5,64.235-2.355,13.912-1.65,33.856l0.47,27.132V356.45Z"/>
</svg>
