<?xml version="1.0" encoding="utf-8"?>
<!-- Generator: Adobe Illustrator 24.1.2, SVG Export Plug-In . SVG Version: 6.00 Build 0)  -->
<svg version="1.1" id="Layer_1" xmlns="http://www.w3.org/2000/svg" xmlns:xlink="http://www.w3.org/1999/xlink" x="0px" y="0px"
	 viewBox="0 0 400 700" style="enable-background:new 0 0 400 700;" xml:space="preserve">
<style type="text/css">
	.st0{fill:#130A33;}
	.st1{clip-path:url(#SVGID_2_);}
	.st2{fill:url(#SVGID_3_);}
	.st3{fill:url(#SVGID_4_);}
	.st4{fill:url(#SVGID_5_);}
	.st5{fill:url(#SVGID_6_);}
	.st6{fill:url(#SVGID_7_);}
	.st7{fill:url(#SVGID_8_);}
	.st8{fill:url(#SVGID_9_);}
	.st9{fill:url(#SVGID_10_);}
	.st10{fill:url(#SVGID_11_);}
	.st11{fill:url(#SVGID_12_);}
	.st12{fill:url(#SVGID_13_);}
	.st13{fill:url(#SVGID_14_);}
	.st14{clip-path:url(#SVGID_16_);}
	.st15{opacity:0.3;}
	.st16{fill:#FFFFFF;}
	.st17{opacity:0.1;fill:#FFFFFF;}
</style>
<g>
	<rect x="-32.3" y="-50.07" class="st0" width="500" height="750"/>
	<g>
		<defs>
			<rect id="SVGID_1_" x="-32.3" y="-50.07" width="500" height="750"/>
		</defs>
		<clipPath id="SVGID_2_">
			<use xlink:href="#SVGID_1_"  style="overflow:visible;"/>
		</clipPath>
		<g class="st1">
			
				<linearGradient id="SVGID_3_" gradientUnits="userSpaceOnUse" x1="175.0136" y1="271.3337" x2="212.1073" y2="358.4233" gradientTransform="matrix(6.123234e-17 1 -1 6.123234e-17 480.6241 117.2313)">
				<stop  offset="0" style="stop-color:#290468"/>
				<stop  offset="1" style="stop-color:#130A33"/>
			</linearGradient>
			<path class="st2" d="M23.66-72.76C7.76,16.33,42.62,63.32,59.75,78.55c17.14,15.23,96.33,66.13,104.97,137.22
				c7.43,61.12-8.97,104.61,15.53,180.52s91.58,71.48,141.39,138s32.13,173.48,32.13,173.48l-249.62-211.6L-34.88,58.78
				c0,0-28.57-129.97-23.75-129.45C-53.81-70.15,23.66-72.76,23.66-72.76z"/>
			
				<linearGradient id="SVGID_4_" gradientUnits="userSpaceOnUse" x1="-138.8666" y1="492.3546" x2="-126.3449" y2="517.9198" gradientTransform="matrix(6.123234e-17 1 -1 6.123234e-17 480.6241 117.2313)">
				<stop  offset="0" style="stop-color:#290468"/>
				<stop  offset="1" style="stop-color:#130A33"/>
			</linearGradient>
			<path class="st3" d="M-4.09-79.02C-45.87-26.06,16,24.55,5.31,39.42C-5.39,54.29-61.22,4.2-61.22,4.2s-21.91-41.22-7.83-54.26
				c14.09-13.04,34.7-33.39,42.52-33.91C-18.69-84.5-4.09-79.02-4.09-79.02z"/>
			
				<linearGradient id="SVGID_5_" gradientUnits="userSpaceOnUse" x1="453.37" y1="218.9078" x2="462.0261" y2="239.2307" gradientTransform="matrix(6.123234e-17 1 -1 6.123234e-17 480.6241 117.2313)">
				<stop  offset="0" style="stop-color:#290468"/>
				<stop  offset="1" style="stop-color:#130A33"/>
			</linearGradient>
			<path class="st4" d="M264.87,661.59c24.26-77.87-9.78-136.57-74.35-153C194.04,517.98,264.87,661.59,264.87,661.59z"/>
			
				<linearGradient id="SVGID_6_" gradientUnits="userSpaceOnUse" x1="121.0352" y1="339.9389" x2="129.6912" y2="360.2618" gradientTransform="matrix(6.123234e-17 1 -1 6.123234e-17 480.6241 117.2313)">
				<stop  offset="0" style="stop-color:#290468"/>
				<stop  offset="1" style="stop-color:#130A33"/>
			</linearGradient>
			<path class="st5" d="M143.84,329.26c24.26-77.87-9.78-136.57-74.35-153C73.01,185.65,143.84,329.26,143.84,329.26z"/>
			
				<linearGradient id="SVGID_7_" gradientUnits="userSpaceOnUse" x1="122.0339" y1="434.8404" x2="548.1641" y2="324.4928" gradientTransform="matrix(6.123234e-17 1 -1 6.123234e-17 480.6241 117.2313)">
				<stop  offset="0" style="stop-color:#32FFE7"/>
				<stop  offset="0.4899" style="stop-color:#7E00D3"/>
				<stop  offset="1" style="stop-color:#32007C"/>
			</linearGradient>
			<path class="st6" d="M372.87,704.62H-42.21V-43.5C-24.86,31.51,35.53,35.42,66.44,80.91c27.72,40.79,2.25,93.76,47.1,157.15v0.01
				c5.17,7.32,11.29,14.78,18.53,22.37c89.47,93.84,40.13,213.29,77.01,278.84c4.9,8.71,11.37,16.69,18.9,24.16
				c0.21,0.2,0.41,0.4,0.61,0.59C277.96,612.45,371.94,639.56,372.87,704.62z"/>
			
				<linearGradient id="SVGID_8_" gradientUnits="userSpaceOnUse" x1="-69.3963" y1="574.9026" x2="549.2554" y2="215.6852" gradientTransform="matrix(6.123234e-17 1 -1 6.123234e-17 480.6241 117.2313)">
				<stop  offset="0" style="stop-color:#32FFE7"/>
				<stop  offset="0.4899" style="stop-color:#7E00D3"/>
				<stop  offset="1" style="stop-color:#32007C"/>
			</linearGradient>
			<path class="st7" d="M372.87,704.62H150.46c-35.29-40.58-63.59-101.64-64.02-172.16c-0.65-106.5-56.79-225.93-128.65-242.49
				V-43.5C-24.86,31.51,35.53,35.42,66.44,80.91c27.72,40.79,2.25,93.76,47.1,157.15v0.01c5.17,7.32,11.29,14.78,18.53,22.37
				c89.47,93.84,40.13,213.29,77.01,278.84c4.9,8.71,11.37,16.69,18.9,24.16c0.21,0.2,0.41,0.4,0.61,0.59
				C277.96,612.45,371.94,639.56,372.87,704.62z"/>
			
				<linearGradient id="SVGID_9_" gradientUnits="userSpaceOnUse" x1="-26.1196" y1="485.8299" x2="456.7498" y2="227.5694" gradientTransform="matrix(6.123234e-17 1 -1 6.123234e-17 480.6241 117.2313)">
				<stop  offset="0" style="stop-color:#32FFE7"/>
				<stop  offset="0.4899" style="stop-color:#7E00D3"/>
				<stop  offset="1" style="stop-color:#32007C"/>
			</linearGradient>
			<path class="st8" d="M227.98,563.44c-71.65-68.5-166.91-153.67-187.71-274.37C27.24,213.47-13.48,174-42.21,155.01V-43.5
				C-24.86,31.51,35.53,35.42,66.44,80.91c27.72,40.79,2.25,93.76,47.1,157.15v0.01c5.17,7.32,11.29,14.78,18.53,22.37
				c47.67,50,55.93,107.27,58.83,159.78c0,0.01,0,0.02,0.01,0.03c1.14,20.85,1.45,40.95,3.03,59.54
				c1.92,22.46,5.71,42.74,15.14,59.49C213.98,547.99,220.45,555.97,227.98,563.44z"/>
			
				<linearGradient id="SVGID_10_" gradientUnits="userSpaceOnUse" x1="-131.8262" y1="522.769" x2="140.5216" y2="374.0735" gradientTransform="matrix(6.123234e-17 1 -1 6.123234e-17 480.6241 117.2313)">
				<stop  offset="0" style="stop-color:#32FFE7"/>
				<stop  offset="0.4899" style="stop-color:#7E00D3"/>
				<stop  offset="1" style="stop-color:#32007C"/>
			</linearGradient>
			<path class="st9" d="M113.54,238.06c-35.52-42.61-125.3-64-155.75-153.96V-43.5C-24.86,31.51,35.53,35.42,66.44,80.91
				c14.1,20.75,14.44,44.66,17.28,71.48c1.5,14.31,3.72,29.44,9.12,45.37c0.02,0.05,0.03,0.09,0.05,0.14
				C97.26,210.78,103.71,224.17,113.54,238.06z"/>
			
				<linearGradient id="SVGID_11_" gradientUnits="userSpaceOnUse" x1="-145.9004" y1="456.966" x2="80.5297" y2="456.966" gradientTransform="matrix(6.123234e-17 1 -1 6.123234e-17 480.6241 117.2313)">
				<stop  offset="0" style="stop-color:#DA5AE8"/>
				<stop  offset="1" style="stop-color:#710064"/>
			</linearGradient>
			<path class="st10" d="M92.84,197.76C69.01,130.6-12.52,147.46-42.21,38.24c-0.86-3.15-1.67-6.41-2.44-9.78
				c-1.95-16.43,0-57.13,0-57.13c0.58,3.78,1.4,7.46,2.44,11.03c17.62,60.67,98.16,93.61,125.93,170.03
				C85.22,166.7,87.44,181.83,92.84,197.76z"/>
			
				<linearGradient id="SVGID_12_" gradientUnits="userSpaceOnUse" x1="-24.6005" y1="411.1327" x2="362.5597" y2="411.1327" gradientTransform="matrix(6.123234e-17 1 -1 6.123234e-17 480.6241 117.2313)">
				<stop  offset="0" style="stop-color:#DA5AE8"/>
				<stop  offset="1" style="stop-color:#710064"/>
			</linearGradient>
			<path class="st11" d="M193.94,479.79c-10.97-98.34-84.57-82.54-118.46-180.03c-29.2-84-86.64-139.78-117.69-157.64
				c-5.01-2.89-9.33-4.79-12.74-5.66l2.61-43.83c1.59,4.98,5.13,11.01,10.13,17.87c32.7,44.84,129.58,115.18,171.69,173.61
				c31.3,43.43,52.14,80.75,61.42,136.11c0,0.01,0,0.02,0.01,0.03C192.05,441.1,192.36,461.2,193.94,479.79z"/>
			
				<linearGradient id="SVGID_13_" gradientUnits="userSpaceOnUse" x1="126.6841" y1="545.7706" x2="674.9" y2="80.9024" gradientTransform="matrix(6.123234e-17 1 -1 6.123234e-17 480.6241 117.2313)">
				<stop  offset="0" style="stop-color:#DA5AE8"/>
				<stop  offset="1" style="stop-color:#710064"/>
			</linearGradient>
			<path class="st12" d="M-54.95,199.46c37.96,0.78,67.3,49.61,74.08,74.66c6.78,25.04,15.91,45.47,29.48,80.17
				c13.57,34.7,93.65,215.74,181.83,256.43c88.17,40.7,59.72,17.39,131.86,59.04c1.58,2.66,40.84,49.48,40.84,49.48h-86.61
				c-8.25-53.74-96.52-46.43-161.61-130.43c-43.89-56.65-78.13-173.22-112.04-235.57C8.96,290.9-11.39,236.9-49.74,248.9
				L-54.95,199.46z"/>
			
				<linearGradient id="SVGID_14_" gradientUnits="userSpaceOnUse" x1="222.437" y1="565.5578" x2="685.7405" y2="318.2537" gradientTransform="matrix(6.123234e-17 1 -1 6.123234e-17 480.6241 117.2313)">
				<stop  offset="0" style="stop-color:#DA5AE8"/>
				<stop  offset="1" style="stop-color:#710064"/>
			</linearGradient>
			<path class="st13" d="M-54.95,352.46C112.26,373.59-2,665.5,110.44,716.11C-84.56,699.93,50.44,453.42-54.95,352.46z"/>
			<g>
				<defs>
					<path id="SVGID_15_" d="M372.87,704.62H-42.21V-43.5C-24.86,31.51,35.53,35.42,66.44,80.91c27.72,40.79,2.25,93.76,47.1,157.15
						v0.01c5.17,7.32,11.29,14.78,18.53,22.37c89.47,93.84,40.13,213.29,77.01,278.84c4.9,8.71,11.37,16.69,18.9,24.16
						c0.21,0.2,0.41,0.4,0.61,0.59C277.96,612.45,371.94,639.56,372.87,704.62z"/>
				</defs>
				<clipPath id="SVGID_16_">
					<use xlink:href="#SVGID_15_"  style="overflow:visible;"/>
				</clipPath>
				<g class="st14">
					<g class="st15">
						<path class="st16" d="M-49.8,308.42c12.38-0.73,27.84,6.9,43.54,21.49c38.9,36.14,78.76,113.91,80.13,206.19
							c1.11,75.18,31.42,150.16,73.69,182.35l-1.21,1.59c-21.97-16.73-40.71-43.94-54.2-78.69C79.6,608.99,72.4,571.62,71.87,536.13
							c-1.36-91.69-40.9-168.9-79.49-204.75c-15.3-14.21-30.23-21.66-42.06-20.96L-49.8,308.42z"/>
					</g>
					<g class="st15">
						<path class="st16" d="M-55.12,261.73c41.32-6.73,84.24,63.12,112.97,122.9c6.86,14.27,15.89,37.9,26.35,65.26
							c21.53,56.33,48.32,126.42,71.61,154.98c16.68,20.44,48.53,41.08,76.62,59.29c30.63,19.85,57.09,37,57.3,49.45l-2,0.03
							c-0.19-11.39-27.49-29.08-56.39-47.81c-28.22-18.29-60.2-39.02-77.08-59.71c-23.5-28.8-50.36-99.07-71.93-155.52
							c-10.44-27.32-19.46-50.92-26.28-65.11C27.62,326.34-14.69,257.18-54.79,263.71L-55.12,261.73z"/>
					</g>
					<g class="st15">
						<path class="st16" d="M-55.01,181.64c25.71-1.55,48.74,15.6,68.45,50.97c20.33,36.49,29.72,79.74,32.11,92.13
							c4.63,23.96,28.12,83.94,71.46,142.9c36.06,49.06,96.46,111.37,179.38,129.58l-0.43,1.95
							c-83.53-18.34-144.3-81.01-180.57-130.35C71.86,409.6,48.24,349.24,43.58,325.12C33.13,270.99,0.63,180.29-54.89,183.63
							L-55.01,181.64z"/>
					</g>
					<g class="st15">
						<path class="st16" d="M-62.72,123.19l0.75-1.86c36.71,14.79,69.69,40.6,92.87,72.68c15.29,21.17,26.65,45.21,37.64,68.47
							c11.2,23.71,22.79,48.22,38.51,69.59c10.04,13.65,21.91,26.19,33.39,38.32c6.2,6.55,12.62,13.33,18.68,20.22
							c13.61,15.46,32.47,39.3,38.99,67.73l-1.95,0.45c-6.42-27.99-25.07-51.56-38.54-66.86c-6.04-6.86-12.44-13.62-18.63-20.17
							c-11.52-12.18-23.43-24.77-33.55-38.51c-15.83-21.52-27.46-46.12-38.7-69.92c-10.95-23.17-22.27-47.14-37.45-68.15
							C6.32,163.41-26.35,137.84-62.72,123.19z"/>
					</g>
					<g class="st15">
						<path class="st16" d="M-56.04,5.19c0-2.01,0.03-4.05,0.09-6.11l2,0.06c-2.69,91,54.91,128.93,101.17,159.4
							c26.65,17.55,49.66,32.72,56.61,54.31l-1.9,0.61c-6.73-20.92-29.47-35.91-55.8-53.25C0.49,130.16-56.04,92.91-56.04,5.19z"/>
					</g>
				</g>
			</g>
			<g>
				<path class="st17" d="M-32.3,273.42c69.69,12.69,123.22,100.85,148.76,233.16C142,638.9,338.44,543.42,376.78,626.37
					c11.03,23.85,12.22,45.57,8.32,64.4c-11.4,55.09-66.99,88.96-121.67,75.75c-55.48-13.4-129.69-63.61-169.95-226.24
					C23.8,258.82-47.21,418.2-42.21,492.55L-32.3,273.42z"/>
				<path class="st17" d="M-51.83,159.42C26.05,179.46,70,366.6,106.78,435.04c36.78,68.44,96.85,53.8,72.52-29.36
					S-48.17,191.77-54.96,83.77S6.09,200.11,85.39,230.37c79.3,30.26,66.21-84.26-20.63-118.43S-32,79.07-49.74,43.07
					s20.09,10.7,44.61-14.09C19.39,4.2,3.59-92.84-55.42-54.23S-51.83,159.42-51.83,159.42z"/>
			</g>
		</g>
	</g>
</g>
</svg>
