<?xml version="1.0" encoding="utf-8"?>
<!-- Generator: Adobe Illustrator 25.1.0, SVG Export Plug-In . SVG Version: 6.00 Build 0)  -->
<svg version="1.1" baseProfile="tiny" id="Layer_1" xmlns="http://www.w3.org/2000/svg" xmlns:xlink="http://www.w3.org/1999/xlink"
	 x="0px" y="0px" viewBox="0 0 1920 1080" overflow="visible" xml:space="preserve">
<path class="top-wave" fill="#232323" d="M-45.92,884.5c173.56-22.52,411.51-73.59,574.16-206c151.43-123.27,93.1-199.42,239.11-288
	c229.67-139.33,508.75-32.69,763.01-163c142.03-72.79,205.01-182.97,234.54-281c-617.82,2.33-1235.65,4.67-1853.47,7
	C-74.35,263.83-60.13,574.17-45.92,884.5z"/>
<path class="mid-wave" fill="#2A2A2A" d="M-52.77,540c152.3,107,427.42,102.31,488.88-53c50.26-127,207.13-259,421.87-259
	c245.2,0,260.43,41,432.53,41c363.8,0,514.29-337.7,512.48-391.5c-3.43-101.99-1405.85-365.87-1873.27,19
	C-342.38,120.54-215.84,425.43-52.77,540z"/>
<path class="bot-wave" fill="#323232" d="M-81.71,71c47.04,47.84,141.64,172,345.72,172c260.43,0,330.49-133,517.81-135
	c182.73-1.95,295.08,69,552.84,69c88.33,0,274.14-11,382.27-136c33.22-38.4,97.51-126.21,74.63-175
	c-40.08-85.44-424.59-108.58-1819.97,17C-51.76-35.33-58.36-10.67-81.71,71z"/>
</svg>
